PathFileType	4	(X/Y/Z)	C:\Users\°ÂÌØÂü\Desktop\20210112\bx_n_5_1802-Unnamed.trc
DataRate	CameraRate	NumFrames	NumMarkers	Units	OrigDataRate	OrigDataStartFrame	OrigNumFrames
50.00	50.00	       6	0	mm	50.00	393	       523
Frame#	Time	
		

393	7.840	-233.04231	121.08970	1137.53394	-795.42151	236.73457	716.16595				-706.74951	226.54692	691.01123	-670.45941	56.09285	150.42104	-700.76056	-3.51217	696.68341	-439.02054	-46.66885	936.66425	-499.36407	243.82628	467.49265	-679.04651	307.55344	586.61993	-506.91446	13.26649	459.73959	-609.93347	288.82742	455.60873	-518.05402	-72.34333	142.59666	-547.03516	-34.48266	162.10497	-785.61639	51.53793	181.07076	-694.84412	153.31448	206.68320	-594.75201	26.09640	164.62912	-673.23810	173.51825	153.12810	-787.68994	168.99786	191.82747	-755.67950	223.79936	207.76830	-590.40643	219.31671	172.78841	-882.70435	296.04880	144.58080	-554.81146	257.88492	162.91470	-661.95496	297.54797	158.57240	-625.83765	305.62558	159.12276	-528.41656	304.39316	146.67099	-810.47742	303.71686	624.41394	-548.29932	-38.37901	509.34976	-619.82611	-43.83992	454.95197	-743.32935	-8.48664	211.84956	-875.78961	-78.57214	141.09050	-796.24829	-77.86153	648.16772	-692.94519	-68.22931	600.76093	-531.46649	74.68856	532.25256	-561.81805	-41.04470	543.56586	-508.46552	183.40590	528.03357	-549.53088	290.69702	507.33914	-610.48639	-75.05791	158.69934	-648.43250	-64.63657	165.34279	-583.58899	291.62387	537.93866				-1004.07172	101.00293	743.79022										-446.48566	281.42383	929.91412	
394	7.860	-233.31108	120.46468	1142.40552	-795.33154	236.84540	719.17218				-705.91339	226.70660	692.50909	-670.95966	56.05315	149.94226	-700.23602	-3.65478	698.38300	-439.54953	-47.08554	941.56006	-499.27664	243.51508	467.54880	-678.85480	307.17279	587.39325	-507.66309	12.89093	460.05032	-610.18817	288.65680	455.75983	-517.78302	-72.21342	142.64253	-547.15204	-34.54558	162.00529	-785.56476	51.65059	180.89865	-695.60352	152.40390	207.57031	-594.93066	26.00028	164.66789	-673.23810	173.51825	153.12810	-787.90875	169.11420	191.32773	-755.67822	223.91393	207.65999	-590.40332	219.24754	172.87259	-882.60455	296.08044	144.69267	-554.70593	257.86658	162.85680	-661.84967	297.55566	158.58037	-625.95239	305.71393	158.98952	-528.42523	304.30548	146.68793	-810.34753	303.86383	626.46826	-549.07306	-38.47376	509.70435	-620.65906	-43.67578	455.35162	-743.21674	-8.42292	211.92461	-875.78961	-78.57214	141.09050	-796.79755	-77.41009	650.36829	-693.43750	-68.24812	602.24988	-531.95862	74.55676	532.83728	-562.91870	-41.54489	544.03156	-508.96521	182.66043	528.32471	-549.84796	290.45929	507.65891	-610.56006	-75.01118	158.66344	-648.51788	-64.61031	165.29398	-583.62854	290.89990	538.33423				-1003.96906	101.68929	747.01617										-446.51801	281.37732	934.51898	
395	7.880	-234.31641	120.17925	1147.96887	-794.17108	237.67583	723.63403	-699.65540	79.12218	205.88152	-705.43188	227.16112	695.06885	-670.86285	55.95917	149.82095	-700.21857	-3.38608	699.95514	-440.30081	-46.83408	946.67169				-678.72327	307.03586	589.75885	-508.18506	12.35214	460.55414	-610.61798	287.95337	456.36835	-518.09875	-72.70447	142.66528	-547.25653	-34.56404	161.78413	-785.69794	51.63299	180.96202	-695.36884	152.05083	207.73421	-594.69373	25.93835	164.79269	-673.32849	173.46660	152.92134	-787.93176	169.29401	191.51910	-755.62402	223.84392	207.56956	-590.30542	219.31819	173.01631	-882.70435	296.04880	144.58080	-554.58118	257.93619	162.92818	-661.92145	297.63171	158.52757	-625.93567	305.73212	159.02457	-528.41656	304.39316	146.67099	-810.12469	303.90939	629.46844	-550.02441	-39.32244	510.50131	-621.40778	-43.72625	455.39709	-743.57458	-8.64327	211.66739	-875.79309	-78.63580	140.96161	-796.81226	-77.20975	652.94525	-694.17950	-68.18184	603.82153	-532.33502	74.06890	532.98590	-563.85168	-41.54694	544.52423	-509.27374	182.57751	528.29340	-550.60925	290.47620	508.39319	-610.62067	-75.12254	158.70883	-648.57013	-64.73934	165.23244	-583.57874	290.25363	538.76178				-1003.43774	102.41292	750.44800										-446.92920	281.17426	938.64618	
396	7.900	-235.52113	119.59415	1154.27844	-794.02258	237.64992	726.72601	-699.49689	79.76419	206.06407	-704.23572	227.71796	697.18909	-669.10083	56.43924	150.78253	-699.28888	-3.79718	702.08356							-678.91986	306.37268	590.46039	-508.86426	12.13323	460.74628	-611.21576	288.02890	456.84171	-518.06677	-72.41688	142.50029	-547.26984	-34.60849	161.82555	-785.34637	51.53863	180.90599	-696.08197	151.98170	207.60324	-594.69495	25.77993	164.66855	-673.23810	173.51825	153.12810	-788.33350	169.54018	191.22035	-755.87079	223.84734	207.46341	-590.32562	219.20793	172.76929	-882.61926	296.13934	144.51721	-554.56494	257.95535	162.57492	-661.86243	297.46399	158.49271	-625.82062	305.77832	158.89389	-528.42523	304.30548	146.68793	-809.06512	304.09897	631.84454	-550.59869	-39.63828	511.05582	-621.77557	-43.91648	455.65372	-743.55444	-8.82419	211.69290	-875.82855	-78.79845	141.17526	-797.01776	-77.02015	655.23578	-694.80072	-68.22635	605.57556	-532.71851	73.43229	533.50299	-563.99658	-41.51971	544.57379	-509.53928	182.11661	528.67224	-550.58710	289.83081	508.42136	-610.62067	-75.12254	158.70883	-648.70734	-64.71608	165.15736	-584.09204	290.08682	539.87976				-1003.19446	103.17270	754.48694										-446.58527	281.16690	944.18048	
397	7.920	-236.64049	118.86017	1161.82520	-793.63617	237.54338	730.55267	-699.85760	79.55462	206.25816	-703.51550	227.80696	699.59045	-669.16687	56.91125	150.38504	-698.88763	-4.02968	704.09631	-442.69266	-47.76644	959.02307				-678.72510	306.39972	592.55011	-509.17459	11.76780	461.33368	-611.53711	288.00467	457.56915	-517.99988	-72.24230	142.18788	-547.19916	-34.71733	161.82153	-785.35199	51.59645	180.88800	-695.75085	152.14352	207.50392	-594.87762	25.83203	164.79733	-673.23810	173.51825	153.12810	-788.45575	169.80502	191.07788	-755.95929	223.95995	207.47351	-589.91852	219.41615	173.13400	-882.66425	296.18982	144.71384	-554.57959	257.89807	162.85989	-661.92145	297.63171	158.52757	-625.84961	305.66092	159.04514	-528.41656	304.39316	146.67099	-808.71185	304.07681	634.64093	-551.60089	-39.86954	511.11911	-622.70270	-44.53101	455.74429	-743.52490	-8.77950	210.90677	-875.80023	-78.62018	141.04199	-797.15326	-77.01857	658.20624	-695.06067	-67.98637	606.94781	-533.51678	73.23447	533.73767	-565.67590	-42.55701	545.63068	-510.11813	181.52983	529.10040	-551.50183	289.85007	509.70496	-610.62067	-75.12254	158.70883	-648.81824	-64.75854	165.01793	-584.55145	289.49188	540.69080				-1002.78320	103.44421	758.75269										-447.29105	280.99155	949.80908	
398	7.940	-237.80367	118.01899	1169.89124	-793.28168	237.67201	735.31824	-700.15973	79.34973	206.31506	-702.06061	227.81203	701.91962	-669.31042	56.88801	150.52330	-698.26190	-5.02883	706.90851	-444.29944	-48.52581	966.68878				-678.29187	306.33917	594.45032	-509.92184	10.85848	462.43976	-612.03918	286.93463	457.74673	-518.06677	-72.41688	142.50029	-547.16907	-34.65949	161.88918	-785.40881	51.49766	180.67439	-696.01862	151.97432	207.32526	-594.78632	25.74383	164.90335	-673.23810	173.51825	153.12810	-788.37805	169.59688	190.76436	-755.95190	224.17047	206.91129	-590.11774	219.54385	173.22964	-882.53802	296.16788	144.63821	-554.65796	257.81592	162.97112	-661.89880	297.73120	158.45712	-625.93530	305.93649	158.92766	-528.60822	304.46976	146.66699	-808.00684	303.97849	637.87238	-552.85687	-40.63560	511.99564	-623.74927	-45.04532	455.97653	-743.18524	-9.37037	211.09036	-875.82159	-78.66662	140.97908	-797.07550	-76.77057	661.14935	-695.50958	-68.39307	609.74432				-565.77893	-42.60573	546.00275	-510.73453	181.08577	529.35004	-551.87280	288.79205	510.00995	-610.51923	-75.29545	158.82684	-648.91522	-64.76260	164.86736	-585.09064	288.64716	541.34369				-1002.18121	103.70679	763.36987										-447.73929	281.08734	956.63403	
